<svg width="110" height="18" viewBox="0 0 110 18" fill="none" xmlns="http://www.w3.org/2000/svg">
<path d="M-2.23517e-07 13.23V0.269999H7.92V2.718H2.448V5.526H6.84V7.974H2.448V13.23H-2.23517e-07ZM10.9934 13.5C10.2974 13.5 9.70636 13.368 9.22036 13.104C8.74036 12.834 8.37436 12.477 8.12236 12.033C7.87636 11.583 7.75336 11.088 7.75336 10.548C7.75336 10.098 7.82236 9.687 7.96036 9.315C8.09836 8.943 8.32036 8.616 8.62636 8.334C8.93836 8.046 9.35536 7.806 9.87736 7.614C10.2374 7.482 10.6664 7.365 11.1644 7.263C11.6624 7.161 12.2264 7.065 12.8564 6.975C13.4864 6.879 14.1794 6.774 14.9354 6.66L14.0534 7.146C14.0534 6.57 13.9154 6.147 13.6394 5.877C13.3634 5.607 12.9014 5.472 12.2534 5.472C11.8934 5.472 11.5184 5.559 11.1284 5.733C10.7384 5.907 10.4654 6.216 10.3094 6.66L8.09536 5.958C8.34136 5.154 8.80336 4.5 9.48136 3.996C10.1594 3.492 11.0834 3.24 12.2534 3.24C13.1114 3.24 13.8734 3.372 14.5394 3.636C15.2054 3.9 15.7094 4.356 16.0514 5.004C16.2434 5.364 16.3574 5.724 16.3934 6.084C16.4294 6.444 16.4474 6.846 16.4474 7.29V13.23H14.3054V11.232L14.6114 11.646C14.1374 12.3 13.6244 12.774 13.0724 13.068C12.5264 13.356 11.8334 13.5 10.9934 13.5ZM11.5154 11.574C11.9654 11.574 12.3434 11.496 12.6494 11.34C12.9614 11.178 13.2074 10.995 13.3874 10.791C13.5734 10.587 13.6994 10.416 13.7654 10.278C13.8914 10.014 13.9634 9.708 13.9814 9.36C14.0054 9.006 14.0174 8.712 14.0174 8.478L14.7374 8.658C14.0114 8.778 13.4234 8.88 12.9734 8.964C12.5234 9.042 12.1604 9.114 11.8844 9.18C11.6084 9.246 11.3654 9.318 11.1554 9.396C10.9154 9.492 10.7204 9.597 10.5704 9.711C10.4264 9.819 10.3184 9.939 10.2464 10.071C10.1804 10.203 10.1474 10.35 10.1474 10.512C10.1474 10.734 10.2014 10.926 10.3094 11.088C10.4234 11.244 10.5824 11.364 10.7864 11.448C10.9904 11.532 11.2334 11.574 11.5154 11.574ZM29.5875 13.23V7.488C29.5875 6.846 29.4345 6.348 29.1285 5.994C28.8285 5.634 28.4115 5.454 27.8775 5.454C27.5355 5.454 27.2385 5.535 26.9865 5.697C26.7345 5.853 26.5365 6.075 26.3925 6.363C26.2545 6.645 26.1855 6.972 26.1855 7.344L25.1595 6.66C25.1595 5.994 25.3155 5.406 25.6275 4.896C25.9455 4.386 26.3685 3.99 26.8965 3.708C27.4305 3.42 28.0215 3.276 28.6695 3.276C29.7795 3.276 30.6165 3.606 31.1805 4.266C31.7505 4.92 32.0355 5.778 32.0355 6.84V13.23H29.5875ZM17.8695 13.23V3.51H20.0295V6.732H20.3355V13.23H17.8695ZM23.7375 13.23V7.488C23.7375 6.846 23.5845 6.348 23.2785 5.994C22.9785 5.634 22.5615 5.454 22.0275 5.454C21.5175 5.454 21.1065 5.631 20.7945 5.985C20.4885 6.333 20.3355 6.786 20.3355 7.344L19.3095 6.624C19.3095 5.988 19.4685 5.418 19.7865 4.914C20.1045 4.41 20.5305 4.011 21.0645 3.717C21.6045 3.423 22.2075 3.276 22.8735 3.276C23.6355 3.276 24.2595 3.438 24.7455 3.762C25.2375 4.086 25.6005 4.518 25.8345 5.058C26.0685 5.598 26.1855 6.192 26.1855 6.84V13.23H23.7375ZM33.6558 2.16V-7.15256e-07H36.1038V2.16H33.6558ZM33.6558 13.23V3.51H36.1038V13.23H33.6558ZM38.082 13.23V-7.15256e-07H40.53V13.23H38.082ZM43.5701 17.55L45.4421 12.402L45.4781 13.914L41.2481 3.51H43.7861L46.6301 10.872H46.0541L48.8801 3.51H51.3281L45.8381 17.55H43.5701ZM51.6937 13.23V0.269999H59.6137V2.718H54.1417V5.526H58.5337V7.974H54.1417V13.23H51.6937ZM60.3387 13.23V3.51H62.4987V5.886L62.2647 5.58C62.3907 5.244 62.5587 4.938 62.7687 4.662C62.9787 4.386 63.2367 4.158 63.5427 3.978C63.7767 3.834 64.0317 3.723 64.3077 3.645C64.5837 3.561 64.8687 3.51 65.1627 3.492C65.4567 3.468 65.7507 3.474 66.0447 3.51V5.796C65.7747 5.712 65.4597 5.685 65.0997 5.715C64.7457 5.739 64.4247 5.82 64.1367 5.958C63.8487 6.09 63.6057 6.267 63.4077 6.489C63.2097 6.705 63.0597 6.963 62.9577 7.263C62.8557 7.557 62.8047 7.89 62.8047 8.262V13.23H60.3387ZM67.0366 2.16V-7.15256e-07H69.4846V2.16H67.0366ZM67.0366 13.23V3.51H69.4846V13.23H67.0366ZM75.8008 13.5C74.8048 13.5 73.9258 13.287 73.1638 12.861C72.4078 12.429 71.8138 11.838 71.3818 11.088C70.9558 10.332 70.7428 9.468 70.7428 8.496C70.7428 7.434 70.9528 6.51 71.3728 5.724C71.7928 4.938 72.3718 4.329 73.1098 3.897C73.8478 3.459 74.6968 3.24 75.6568 3.24C76.6768 3.24 77.5438 3.48 78.2578 3.96C78.9718 4.44 79.4998 5.115 79.8418 5.985C80.1838 6.855 80.3038 7.878 80.2018 9.054H77.7808V8.154C77.7808 7.164 77.6218 6.453 77.3038 6.021C76.9918 5.583 76.4788 5.364 75.7648 5.364C74.9308 5.364 74.3158 5.619 73.9198 6.129C73.5298 6.633 73.3348 7.38 73.3348 8.37C73.3348 9.276 73.5298 9.978 73.9198 10.476C74.3158 10.968 74.8948 11.214 75.6568 11.214C76.1368 11.214 76.5478 11.109 76.8898 10.899C77.2318 10.689 77.4928 10.386 77.6728 9.99L80.1208 10.692C79.7548 11.58 79.1758 12.27 78.3838 12.762C77.5978 13.254 76.7368 13.5 75.8008 13.5ZM72.5788 9.054V7.236H79.0228V9.054H72.5788ZM87.6943 13.23V8.64C87.6943 8.418 87.6823 8.136 87.6583 7.794C87.6343 7.446 87.5593 7.098 87.4333 6.75C87.3073 6.402 87.1003 6.111 86.8123 5.877C86.5303 5.643 86.1283 5.526 85.6063 5.526C85.3963 5.526 85.1713 5.559 84.9313 5.625C84.6913 5.691 84.4663 5.82 84.2563 6.012C84.0463 6.198 83.8723 6.474 83.7343 6.84C83.6023 7.206 83.5363 7.692 83.5363 8.298L82.1323 7.632C82.1323 6.864 82.2883 6.144 82.6003 5.472C82.9123 4.8 83.3803 4.257 84.0043 3.843C84.6343 3.429 85.4263 3.222 86.3803 3.222C87.1423 3.222 87.7633 3.351 88.2433 3.609C88.7233 3.867 89.0953 4.194 89.3593 4.59C89.6293 4.986 89.8213 5.4 89.9353 5.832C90.0493 6.258 90.1183 6.648 90.1423 7.002C90.1663 7.356 90.1783 7.614 90.1783 7.776V13.23H87.6943ZM81.0523 13.23V3.51H83.2303V6.732H83.5363V13.23H81.0523ZM95.3799 13.5C94.4859 13.5 93.7029 13.275 93.0309 12.825C92.3589 12.375 91.8339 11.763 91.4559 10.989C91.0839 10.215 90.8979 9.342 90.8979 8.37C90.8979 7.38 91.0869 6.501 91.4649 5.733C91.8489 4.959 92.3859 4.35 93.0759 3.906C93.7659 3.462 94.5759 3.24 95.5059 3.24C96.4299 3.24 97.2069 3.465 97.8369 3.915C98.4669 4.365 98.9439 4.977 99.2679 5.751C99.5919 6.525 99.7539 7.398 99.7539 8.37C99.7539 9.342 99.5889 10.215 99.2589 10.989C98.9349 11.763 98.4489 12.375 97.8009 12.825C97.1529 13.275 96.3459 13.5 95.3799 13.5ZM95.7759 11.322C96.3219 11.322 96.7569 11.199 97.0809 10.953C97.4109 10.707 97.6479 10.362 97.7919 9.918C97.9359 9.474 98.0079 8.958 98.0079 8.37C98.0079 7.782 97.9359 7.266 97.7919 6.822C97.6479 6.378 97.4169 6.033 97.0989 5.787C96.7869 5.541 96.3759 5.418 95.8659 5.418C95.3199 5.418 94.8699 5.553 94.5159 5.823C94.1679 6.087 93.9099 6.444 93.7419 6.894C93.5739 7.338 93.4899 7.83 93.4899 8.37C93.4899 8.916 93.5709 9.414 93.7329 9.864C93.8949 10.308 94.1439 10.662 94.4799 10.926C94.8159 11.19 95.2479 11.322 95.7759 11.322ZM98.0079 13.23V6.57H97.7019V0.269999H100.168V13.23H98.0079ZM105.586 13.5C104.362 13.5 103.372 13.224 102.616 12.672C101.866 12.114 101.41 11.328 101.248 10.314L103.75 9.936C103.852 10.392 104.077 10.749 104.425 11.007C104.779 11.265 105.226 11.394 105.766 11.394C106.21 11.394 106.552 11.31 106.792 11.142C107.032 10.968 107.152 10.728 107.152 10.422C107.152 10.23 107.104 10.077 107.008 9.963C106.912 9.843 106.696 9.726 106.36 9.612C106.03 9.498 105.514 9.348 104.812 9.162C104.02 8.958 103.387 8.73 102.913 8.478C102.439 8.226 102.097 7.926 101.887 7.578C101.677 7.224 101.572 6.798 101.572 6.3C101.572 5.676 101.731 5.136 102.049 4.68C102.367 4.218 102.814 3.864 103.39 3.618C103.972 3.366 104.656 3.24 105.442 3.24C106.204 3.24 106.879 3.357 107.467 3.591C108.055 3.825 108.529 4.158 108.889 4.59C109.255 5.022 109.48 5.532 109.564 6.12L107.062 6.57C107.02 6.21 106.864 5.925 106.594 5.715C106.324 5.505 105.958 5.382 105.496 5.346C105.046 5.316 104.683 5.376 104.407 5.526C104.137 5.676 104.002 5.892 104.002 6.174C104.002 6.342 104.059 6.483 104.173 6.597C104.293 6.711 104.536 6.828 104.902 6.948C105.274 7.068 105.838 7.224 106.594 7.416C107.332 7.608 107.923 7.833 108.367 8.091C108.817 8.343 109.144 8.649 109.348 9.009C109.552 9.363 109.654 9.792 109.654 10.296C109.654 11.292 109.294 12.075 108.574 12.645C107.854 13.215 106.858 13.5 105.586 13.5Z" fill="black"/>
</svg>
